<?xml version="1.0" encoding="UTF-8" standalone="no"?>
<!DOCTYPE svg PUBLIC "-//W3C//DTD SVG 1.1//EN"
 "http://www.w3.org/Graphics/SVG/1.1/DTD/svg11.dtd">
<!-- Generated by graphviz version 14.0.2 (20251019.1705)
 -->
<!-- Title: AutoGrad Pages: 1 -->
<svg width="812pt" height="100pt"
 viewBox="0.00 0.00 812.00 100.00" xmlns="http://www.w3.org/2000/svg" xmlns:xlink="http://www.w3.org/1999/xlink">
<g id="graph0" class="graph" transform="scale(1 1) rotate(0) translate(4 96)">
<title>AutoGrad</title>
<polygon fill="white" stroke="none" points="-4,4 -4,-96 807.98,-96 807.98,4 -4,4"/>
<!-- 1691426842128 -->
<g id="node1" class="node">
<title>1691426842128</title>
<polygon fill="none" stroke="black" points="0,-0.5 0,-36.5 183.75,-36.5 183.75,-0.5 0,-0.5"/>
<text xml:space="preserve" text-anchor="middle" x="11.38" y="-13.7" font-family="Times New Roman,serif" font-size="14.00">x</text>
<polyline fill="none" stroke="black" points="22.75,-1 22.75,-36.5"/>
<text xml:space="preserve" text-anchor="middle" x="62.62" y="-13.7" font-family="Times New Roman,serif" font-size="14.00">data 2.0000</text>
<polyline fill="none" stroke="black" points="102.5,-1 102.5,-36.5"/>
<text xml:space="preserve" text-anchor="middle" x="143.12" y="-13.7" font-family="Times New Roman,serif" font-size="14.00">grad 0.0000</text>
</g>
<!-- 1690275210288* -->
<g id="node3" class="node">
<title>1690275210288*</title>
<ellipse fill="none" stroke="black" cx="250.12" cy="-73.5" rx="27" ry="18"/>
<text xml:space="preserve" text-anchor="middle" x="250.12" y="-68.45" font-family="Times New Roman,serif" font-size="14.00">*</text>
</g>
<!-- 1691426842128&#45;&gt;1690275210288* -->
<g id="edge5" class="edge">
<title>1691426842128&#45;&gt;1690275210288*</title>
<path fill="none" stroke="black" d="M155.21,-36.87C164.82,-39.94 174.58,-43.2 183.75,-46.5 194.55,-50.39 206.19,-55.04 216.6,-59.37"/>
<polygon fill="black" stroke="black" points="225.81,-63.26 214.84,-63.52 222.32,-61.79 216.6,-59.37 216.6,-59.37 216.6,-59.37 222.32,-61.79 218.35,-55.22 225.81,-63.26"/>
</g>
<!-- 1690275530128RelU -->
<g id="node7" class="node">
<title>1690275530128RelU</title>
<ellipse fill="none" stroke="black" cx="250.12" cy="-18.5" rx="30.37" ry="18"/>
<text xml:space="preserve" text-anchor="middle" x="250.12" y="-13.45" font-family="Times New Roman,serif" font-size="14.00">RelU</text>
</g>
<!-- 1691426842128&#45;&gt;1690275530128RelU -->
<g id="edge4" class="edge">
<title>1691426842128&#45;&gt;1690275530128RelU</title>
<path fill="none" stroke="black" d="M184.21,-18.5C192.64,-18.5 200.85,-18.5 208.45,-18.5"/>
<polygon fill="black" stroke="black" points="218.23,-18.5 208.23,-23 214.45,-18.5 208.23,-18.5 208.23,-18.5 208.23,-18.5 214.45,-18.5 208.23,-14 218.23,-18.5"/>
</g>
<!-- 1690275210288 -->
<g id="node2" class="node">
<title>1690275210288</title>
<polygon fill="none" stroke="black" points="316.48,-55.5 316.48,-91.5 497.23,-91.5 497.23,-55.5 316.48,-55.5"/>
<text xml:space="preserve" text-anchor="middle" x="326.36" y="-68.7" font-family="Times New Roman,serif" font-size="14.00"> </text>
<polyline fill="none" stroke="black" points="336.23,-56 336.23,-91.5"/>
<text xml:space="preserve" text-anchor="middle" x="376.11" y="-68.7" font-family="Times New Roman,serif" font-size="14.00">data 6.0000</text>
<polyline fill="none" stroke="black" points="415.98,-56 415.98,-91.5"/>
<text xml:space="preserve" text-anchor="middle" x="456.61" y="-68.7" font-family="Times New Roman,serif" font-size="14.00">grad 0.0000</text>
</g>
<!-- 1690275538048+ -->
<g id="node5" class="node">
<title>1690275538048+</title>
<ellipse fill="none" stroke="black" cx="560.23" cy="-45.5" rx="27" ry="18"/>
<text xml:space="preserve" text-anchor="middle" x="560.23" y="-40.45" font-family="Times New Roman,serif" font-size="14.00">+</text>
</g>
<!-- 1690275210288&#45;&gt;1690275538048+ -->
<g id="edge7" class="edge">
<title>1690275210288&#45;&gt;1690275538048+</title>
<path fill="none" stroke="black" d="M497.66,-56.89C506.56,-55.24 515.19,-53.65 523.03,-52.2"/>
<polygon fill="black" stroke="black" points="532.7,-50.41 523.69,-56.65 528.98,-51.1 522.87,-52.23 522.87,-52.23 522.87,-52.23 528.98,-51.1 522.05,-47.8 532.7,-50.41"/>
</g>
<!-- 1690275210288*&#45;&gt;1690275210288 -->
<g id="edge1" class="edge">
<title>1690275210288*&#45;&gt;1690275210288</title>
<path fill="none" stroke="black" d="M277.37,-73.5C285.47,-73.5 294.93,-73.5 304.98,-73.5"/>
<polygon fill="black" stroke="black" points="314.85,-73.5 304.85,-78 311.07,-73.5 304.85,-73.5 304.85,-73.5 304.85,-73.5 311.07,-73.5 304.85,-69 314.85,-73.5"/>
</g>
<!-- 1690275538048 -->
<g id="node4" class="node">
<title>1690275538048</title>
<polygon fill="none" stroke="black" points="623.23,-27.5 623.23,-63.5 803.98,-63.5 803.98,-27.5 623.23,-27.5"/>
<text xml:space="preserve" text-anchor="middle" x="633.11" y="-40.7" font-family="Times New Roman,serif" font-size="14.00"> </text>
<polyline fill="none" stroke="black" points="642.98,-28 642.98,-63.5"/>
<text xml:space="preserve" text-anchor="middle" x="682.86" y="-40.7" font-family="Times New Roman,serif" font-size="14.00">data 8.0000</text>
<polyline fill="none" stroke="black" points="722.73,-28 722.73,-63.5"/>
<text xml:space="preserve" text-anchor="middle" x="763.36" y="-40.7" font-family="Times New Roman,serif" font-size="14.00">grad 1.0000</text>
</g>
<!-- 1690275538048+&#45;&gt;1690275538048 -->
<g id="edge2" class="edge">
<title>1690275538048+&#45;&gt;1690275538048</title>
<path fill="none" stroke="black" d="M587.6,-45.5C594.83,-45.5 603.12,-45.5 611.91,-45.5"/>
<polygon fill="black" stroke="black" points="621.64,-45.5 611.64,-50 617.86,-45.5 611.64,-45.5 611.64,-45.5 611.64,-45.5 617.86,-45.5 611.64,-41 621.64,-45.5"/>
</g>
<!-- 1690275530128 -->
<g id="node6" class="node">
<title>1690275530128</title>
<polygon fill="none" stroke="black" points="316.48,-0.5 316.48,-36.5 497.23,-36.5 497.23,-0.5 316.48,-0.5"/>
<text xml:space="preserve" text-anchor="middle" x="326.36" y="-13.7" font-family="Times New Roman,serif" font-size="14.00"> </text>
<polyline fill="none" stroke="black" points="336.23,-1 336.23,-36.5"/>
<text xml:space="preserve" text-anchor="middle" x="376.11" y="-13.7" font-family="Times New Roman,serif" font-size="14.00">data 2.0000</text>
<polyline fill="none" stroke="black" points="415.98,-1 415.98,-36.5"/>
<text xml:space="preserve" text-anchor="middle" x="456.61" y="-13.7" font-family="Times New Roman,serif" font-size="14.00">grad 0.0000</text>
</g>
<!-- 1690275530128&#45;&gt;1690275538048+ -->
<g id="edge6" class="edge">
<title>1690275530128&#45;&gt;1690275538048+</title>
<path fill="none" stroke="black" d="M497.66,-34.52C506.48,-36.09 515.02,-37.61 522.8,-39"/>
<polygon fill="black" stroke="black" points="532.4,-40.71 521.76,-43.39 528.68,-40.05 522.55,-38.96 522.55,-38.96 522.55,-38.96 528.68,-40.05 523.34,-34.53 532.4,-40.71"/>
</g>
<!-- 1690275530128RelU&#45;&gt;1690275530128 -->
<g id="edge3" class="edge">
<title>1690275530128RelU&#45;&gt;1690275530128</title>
<path fill="none" stroke="black" d="M280.95,-18.5C288.24,-18.5 296.44,-18.5 305.08,-18.5"/>
<polygon fill="black" stroke="black" points="314.99,-18.5 304.99,-23 311.21,-18.5 304.99,-18.5 304.99,-18.5 304.99,-18.5 311.21,-18.5 304.99,-14 314.99,-18.5"/>
</g>
<!-- 1691426840048 -->
<g id="node8" class="node">
<title>1691426840048</title>
<polygon fill="none" stroke="black" points="0,-55.5 0,-91.5 183.75,-91.5 183.75,-55.5 0,-55.5"/>
<text xml:space="preserve" text-anchor="middle" x="11.38" y="-68.7" font-family="Times New Roman,serif" font-size="14.00">y</text>
<polyline fill="none" stroke="black" points="22.75,-56 22.75,-91.5"/>
<text xml:space="preserve" text-anchor="middle" x="62.62" y="-68.7" font-family="Times New Roman,serif" font-size="14.00">data 3.0000</text>
<polyline fill="none" stroke="black" points="102.5,-56 102.5,-91.5"/>
<text xml:space="preserve" text-anchor="middle" x="143.12" y="-68.7" font-family="Times New Roman,serif" font-size="14.00">grad 0.0000</text>
</g>
<!-- 1691426840048&#45;&gt;1690275210288* -->
<g id="edge8" class="edge">
<title>1691426840048&#45;&gt;1690275210288*</title>
<path fill="none" stroke="black" d="M184.21,-73.5C193.86,-73.5 203.22,-73.5 211.7,-73.5"/>
<polygon fill="black" stroke="black" points="221.43,-73.5 211.43,-78 217.65,-73.5 211.43,-73.5 211.43,-73.5 211.43,-73.5 217.65,-73.5 211.43,-69 221.43,-73.5"/>
</g>
</g>
</svg>
